<?xml version="1.0" encoding="UTF-8" standalone="no"?>
<!-- Created with Inkscape (http://www.inkscape.org/) -->

<svg
   width="310px"
   height="300px"
   viewBox="0 0 79.864733 76.527396"
   version="1.1"
   id="svg5"
   inkscape:version="1.2.2 (b0a8486541, 2022-12-01)"
   sodipodi:docname="rfid_reader.svg"
   xmlns:inkscape="http://www.inkscape.org/namespaces/inkscape"
   xmlns:sodipodi="http://sodipodi.sourceforge.net/DTD/sodipodi-0.dtd"
   xmlns="http://www.w3.org/2000/svg"
   xmlns:svg="http://www.w3.org/2000/svg">
  <sodipodi:namedview
     id="namedview7"
     pagecolor="#ffffff"
     bordercolor="#000000"
     borderopacity="0.25"
     inkscape:showpageshadow="2"
     inkscape:pageopacity="0.0"
     inkscape:pagecheckerboard="0"
     inkscape:deskcolor="#d1d1d1"
     inkscape:document-units="mm"
     showgrid="false"
     inkscape:zoom="1.4324916"
     inkscape:cx="212.91574"
     inkscape:cy="174.87014"
     inkscape:window-width="1920"
     inkscape:window-height="991"
     inkscape:window-x="-9"
     inkscape:window-y="-9"
     inkscape:window-maximized="1"
     inkscape:current-layer="layer1" />
  <defs
     id="defs2" />
  <g
     inkscape:label="Calque 1"
     inkscape:groupmode="layer"
     id="layer1"
     transform="translate(-51.642162,-19.208956)">
    <rect
       style="fill:#cd9f6c;fill-opacity:1;stroke:none;stroke-width:0.529914;stroke-dasharray:none"
       id="rect234"
       width="45.961666"
       height="65.965614"
       x="51.642162"
       y="19.208956"
       ry="0.088695183" />
    <rect
       style="fill:#0000d1;fill-opacity:1;stroke:#000000;stroke-width:1.02245;stroke-dasharray:none"
       id="rect236"
       width="33.427391"
       height="7.2873502"
       x="57.909302"
       y="25.435627"
       ry="0.056626711" />
    <ellipse
       style="fill:#008000;stroke:#008000;stroke-width:0.294981;stroke-dasharray:none"
       id="path290"
       cx="65.072189"
       cy="41.71146"
       rx="3.1283915"
       ry="3.0414917" />
    <ellipse
       style="fill:#ff0000;stroke:none;stroke-width:0.294981;stroke-dasharray:none"
       id="path290-3"
       cx="83.332962"
       cy="41.740425"
       rx="3.1283915"
       ry="3.0414917" />
    <g
       aria-label="VALIDER"
       id="text1756"
       style="font-size:6.54104px;font-family:Arial;-inkscape-font-specification:Arial;fill:#745027;stroke-width:1.028"
       transform="matrix(0.44357998,0,0,0.44357998,28.734733,10.688247)">
      <path
         d="m 76.087961,55.032544 -0.683488,5.170871 h -2.040881 l -0.77611,-5.170871 h 1.418077 q 0.245928,2.136697 0.351326,3.612264 0.105397,-1.491536 0.220377,-2.65091 l 0.09262,-0.961354 z"
         style="font-family:Impact;-inkscape-font-specification:Impact"
         id="path8676" />
      <path
         d="m 78.553626,55.032544 0.769722,5.170871 H 77.946791 L 77.87972,59.274 h -0.482274 l -0.07985,0.929415 h -1.392527 l 0.683488,-5.170871 z m -0.712232,3.324816 q -0.102204,-0.878314 -0.204408,-2.168636 -0.204407,1.481954 -0.255509,2.168636 z"
         style="font-family:Impact;-inkscape-font-specification:Impact"
         id="path8678" />
      <path
         d="m 80.897925,55.032544 v 4.136058 h 0.81763 v 1.034813 h -2.162248 v -5.170871 z"
         style="font-family:Impact;-inkscape-font-specification:Impact"
         id="path8680" />
      <path
         d="m 83.385948,55.032544 v 5.170871 h -1.344619 v -5.170871 z"
         style="font-family:Impact;-inkscape-font-specification:Impact"
         id="path8682" />
      <path
         d="m 83.925711,55.032544 h 1.006068 q 0.974129,0 1.315873,0.08943 0.344938,0.08943 0.523794,0.293836 0.178857,0.204408 0.223571,0.456723 0.04471,0.249122 0.04471,0.983711 v 1.810923 q 0,0.696263 -0.06707,0.932609 -0.06388,0.233152 -0.226765,0.367295 -0.162887,0.130948 -0.402427,0.185244 -0.23954,0.0511 -0.721814,0.0511 h -1.695943 z m 1.344618,0.884701 v 3.401469 q 0.290642,0 0.357713,-0.11498 0.06707,-0.118173 0.06707,-0.635579 v -2.008943 q 0,-0.351325 -0.02236,-0.450335 -0.02236,-0.09901 -0.102204,-0.143724 -0.07985,-0.04791 -0.300223,-0.04791 z"
         style="font-family:Impact;-inkscape-font-specification:Impact"
         id="path8684" />
      <path
         d="m 87.541168,55.032544 h 2.242095 v 1.034813 h -0.897477 v 0.980517 h 0.839987 v 0.983711 h -0.839987 v 1.137017 h 0.986905 v 1.034813 h -2.331523 z"
         style="font-family:Impact;-inkscape-font-specification:Impact"
         id="path8686" />
      <path
         d="m 90.259149,55.032544 h 0.951772 q 0.951772,0 1.287129,0.07346 0.338549,0.07346 0.549345,0.376876 0.213989,0.300224 0.213989,0.961354 0,0.603641 -0.150112,0.811243 -0.150112,0.207601 -0.590865,0.249121 0.399233,0.09901 0.536569,0.265091 0.137337,0.166081 0.169275,0.306611 0.03513,0.137337 0.03513,0.763335 v 1.363781 h -1.248802 v -1.718301 q 0,-0.415202 -0.06707,-0.514212 -0.06388,-0.09901 -0.341744,-0.09901 v 2.331523 h -1.344618 z m 1.344618,0.884701 v 1.149792 q 0.226764,0 0.316193,-0.06068 0.09262,-0.06388 0.09262,-0.405621 v -0.284254 q 0,-0.245928 -0.08943,-0.322581 -0.08623,-0.07665 -0.319386,-0.07665 z"
         style="font-family:Impact;-inkscape-font-specification:Impact"
         id="path8688" />
    </g>
    <g
       aria-label="ANNULER"
       id="text1756-6"
       style="font-size:6.54104px;font-family:Arial;-inkscape-font-specification:Arial;fill:#745027;stroke-width:1.028"
       transform="matrix(0.44357998,0,0,0.44357998,28.734733,10.688247)">
      <path
         d="m 116.55728,55.032544 0.76972,5.170871 h -1.37655 L 115.88338,59.274 h -0.48228 l -0.0798,0.929415 h -1.39253 l 0.68349,-5.170871 z m -0.71223,3.324816 q -0.1022,-0.878314 -0.20441,-2.168636 -0.2044,1.481954 -0.25551,2.168636 z"
         style="font-family:Impact;-inkscape-font-specification:Impact"
         id="path8691" />
      <path
         d="m 120.5592,55.032544 v 5.170871 h -1.17854 l -0.69946,-2.350686 v 2.350686 h -1.12424 v -5.170871 h 1.12424 l 0.75376,2.328329 v -2.328329 z"
         style="font-family:Impact;-inkscape-font-specification:Impact"
         id="path8693" />
      <path
         d="m 124.1012,55.032544 v 5.170871 h -1.17854 l -0.69946,-2.350686 v 2.350686 h -1.12424 v -5.170871 h 1.12424 l 0.75376,2.328329 v -2.328329 z"
         style="font-family:Impact;-inkscape-font-specification:Impact"
         id="path8695" />
      <path
         d="m 127.69749,55.032544 v 3.455764 q 0,0.587672 -0.0383,0.827212 -0.0383,0.236346 -0.22676,0.488662 -0.18844,0.249121 -0.49824,0.38007 -0.30661,0.127754 -0.72501,0.127754 -0.46311,0 -0.81763,-0.153305 -0.35452,-0.153306 -0.53018,-0.399234 -0.17567,-0.245927 -0.2076,-0.517406 -0.0319,-0.274673 -0.0319,-1.149792 v -3.059725 h 1.34461 v 3.877355 q 0,0.33855 0.0351,0.434366 0.0383,0.09262 0.15011,0.09262 0.12775,0 0.16289,-0.102204 0.0383,-0.105398 0.0383,-0.491855 v -3.810284 z"
         style="font-family:Impact;-inkscape-font-specification:Impact"
         id="path8697" />
      <path
         d="m 129.56271,55.032544 v 4.136058 h 0.81763 v 1.034813 h -2.16225 v -5.170871 z"
         style="font-family:Impact;-inkscape-font-specification:Impact"
         id="path8699" />
      <path
         d="m 130.70611,55.032544 h 2.2421 v 1.034813 h -0.89748 v 0.980517 h 0.83999 v 0.983711 h -0.83999 v 1.137017 h 0.98691 v 1.034813 h -2.33153 z"
         style="font-family:Impact;-inkscape-font-specification:Impact"
         id="path8701" />
      <path
         d="m 133.42409,55.032544 h 0.95178 q 0.95177,0 1.28713,0.07346 0.33855,0.07346 0.54934,0.376876 0.21399,0.300224 0.21399,0.961354 0,0.603641 -0.15011,0.811243 -0.15011,0.207601 -0.59087,0.249121 0.39924,0.09901 0.53657,0.265091 0.13734,0.166081 0.16928,0.306611 0.0351,0.137337 0.0351,0.763335 v 1.363781 h -1.2488 v -1.718301 q 0,-0.415202 -0.0671,-0.514212 -0.0639,-0.09901 -0.34175,-0.09901 v 2.331523 h -1.34462 z m 1.34462,0.884701 v 1.149792 q 0.22677,0 0.3162,-0.06068 0.0926,-0.06388 0.0926,-0.405621 v -0.284254 q 0,-0.245928 -0.0894,-0.322581 -0.0862,-0.07665 -0.31939,-0.07665 z"
         style="font-family:Impact;-inkscape-font-specification:Impact"
         id="path8703" />
    </g>
    <g
       aria-label="LECTEUR RFID"
       id="text1787"
       style="font-size:9.85787px;font-family:Impact;-inkscape-font-specification:Impact;fill:#745027;stroke-width:2.39384"
       transform="matrix(0.44357998,0,0,0.44357998,28.734733,10.688247)">
      <path
         d="m 79.881411,86.61354 v 6.23337 h 1.232234 v 1.559546 h -3.25868 V 86.61354 Z"
         id="path8706" />
      <path
         d="m 81.604613,86.61354 h 3.379016 v 1.559546 H 83.63106 v 1.477718 h 1.265928 v 1.482531 H 83.63106 v 1.713575 h 1.487345 v 1.559546 h -3.513792 z"
         id="path8708" />
      <path
         d="m 90.432413,90.01181 h -2.026447 v -1.357383 q 0,-0.59205 -0.06739,-0.736452 -0.06257,-0.149216 -0.283991,-0.149216 -0.250298,0 -0.317685,0.178097 -0.06739,0.178096 -0.06739,0.770146 v 3.619686 q 0,0.567983 0.06739,0.741266 0.06739,0.173283 0.303245,0.173283 0.22623,0 0.293618,-0.173283 0.0722,-0.173283 0.0722,-0.813467 v -0.977123 h 2.026447 v 0.303245 q 0,1.208167 -0.173283,1.713575 -0.168469,0.505409 -0.755706,0.885668 -0.582423,0.38026 -1.43921,0.38026 -0.890482,0 -1.468091,-0.322499 -0.57761,-0.322498 -0.765333,-0.890481 -0.187723,-0.572796 -0.187723,-1.718389 v -2.276744 q 0,-0.842347 0.05776,-1.261114 0.05776,-0.423581 0.341752,-0.813467 0.288805,-0.389886 0.794213,-0.611304 0.510222,-0.22623 1.16966,-0.22623 0.895295,0 1.477718,0.346566 0.582423,0.346566 0.765332,0.866414 0.18291,0.515035 0.18291,1.60768 z"
         id="path8710" />
      <path
         d="m 95.241012,86.61354 v 1.559546 h -1.203353 v 6.23337 h -2.026447 v -6.23337 h -1.19854 V 86.61354 Z"
         id="path8712" />
      <path
         d="m 95.7031,86.61354 h 3.379016 v 1.559546 h -1.35257 v 1.477718 h 1.265928 v 1.482531 h -1.265928 v 1.713575 h 1.487345 v 1.559546 H 95.7031 Z"
         id="path8714" />
      <path
         d="m 104.40575,86.61354 v 5.208113 q 0,0.885668 -0.0578,1.246674 -0.0578,0.356193 -0.34175,0.736452 -0.28399,0.375447 -0.75089,0.572797 -0.46209,0.192536 -1.09265,0.192536 -0.69794,0 -1.23223,-0.231044 -0.53429,-0.231044 -0.79903,-0.601676 -0.264736,-0.370633 -0.312871,-0.779773 -0.04813,-0.413954 -0.04813,-1.732829 v -4.61125 h 2.026441 v 5.843484 q 0,0.510221 0.0529,0.654624 0.0578,0.139589 0.22623,0.139589 0.19254,0 0.24548,-0.154029 0.0578,-0.158843 0.0578,-0.741266 V 86.61354 Z"
         id="path8716" />
      <path
         d="m 105.19034,86.61354 h 1.43439 q 1.4344,0 1.93981,0.110709 0.51022,0.110708 0.82791,0.567982 0.3225,0.452461 0.3225,1.448838 0,0.909735 -0.22623,1.222607 -0.22624,0.312872 -0.89049,0.375446 0.60168,0.149216 0.80866,0.399513 0.20697,0.250298 0.25511,0.462088 0.0529,0.206977 0.0529,1.150406 v 2.055327 h -1.882 V 91.81684 q 0,-0.625744 -0.10108,-0.77496 -0.0963,-0.149216 -0.51504,-0.149216 v 3.513792 h -2.02644 z m 2.02644,1.333316 v 1.732828 q 0.34176,0 0.47653,-0.09145 0.13959,-0.09627 0.13959,-0.611303 v -0.428394 q 0,-0.370633 -0.13477,-0.486155 -0.12997,-0.115521 -0.48135,-0.115521 z"
         id="path8718" />
      <path
         d="m 112.23717,86.61354 h 1.4344 q 1.4344,0 1.93981,0.110709 0.51022,0.110708 0.8279,0.567982 0.3225,0.452461 0.3225,1.448838 0,0.909735 -0.22623,1.222607 -0.22623,0.312872 -0.89048,0.375446 0.60168,0.149216 0.80865,0.399513 0.20698,0.250298 0.25512,0.462088 0.0529,0.206977 0.0529,1.150406 v 2.055327 H 114.8797 V 91.81684 q 0,-0.625744 -0.10108,-0.77496 -0.0963,-0.149216 -0.51504,-0.149216 v 3.513792 h -2.02645 z m 2.02645,1.333316 v 1.732828 q 0.34175,0 0.47653,-0.09145 0.13959,-0.09627 0.13959,-0.611303 v -0.428394 q 0,-0.370633 -0.13478,-0.486155 -0.12996,-0.115521 -0.48134,-0.115521 z"
         id="path8720" />
      <path
         d="m 117.54637,86.61354 h 3.43196 v 1.559546 h -1.40551 v 1.477718 h 1.25149 v 1.482531 h -1.25149 v 3.273121 h -2.02645 z"
         id="path8722" />
      <path
         d="m 123.49575,86.61354 v 7.792916 H 121.4693 V 86.61354 Z"
         id="path8724" />
      <path
         d="m 124.30921,86.61354 h 1.51623 q 1.46809,0 1.98313,0.134776 0.51984,0.134775 0.7894,0.442834 0.26955,0.308058 0.33693,0.688318 0.0674,0.375446 0.0674,1.482531 v 2.729205 q 0,1.049324 -0.10108,1.405517 -0.0963,0.351379 -0.34175,0.553542 -0.24549,0.19735 -0.60649,0.279178 -0.36101,0.07702 -1.08783,0.07702 h -2.55593 z m 2.02645,1.333316 v 5.126285 q 0.43802,0 0.5391,-0.173283 0.10109,-0.178097 0.10109,-0.95787 v -3.027636 q 0,-0.529476 -0.0337,-0.678692 -0.0337,-0.149215 -0.15403,-0.216603 -0.12033,-0.0722 -0.45246,-0.0722 z"
         id="path8726" />
    </g>
    <path
       style="fill:#745027;fill-opacity:1;stroke:none;stroke-width:0.456;stroke-dasharray:none"
       d="m 72.157571,62.467933 0.08193,11.142468"
       id="path3003" />
    <g
       id="g5501"
       transform="matrix(0.11736387,0,0,0.11736387,52.669084,69.483031)">
      <path
         fill="#000000"
         d="m 148.33007,-33.962307 c 9.8173,9.817299 9.8173,25.7332234 0,35.4017761 -9.8173,9.8173009 -25.73322,9.8173009 -35.40178,0 -9.8173,-9.8172993 -9.8173,-25.7332231 0,-35.4017761 9.8173,-9.817299 25.58448,-9.817299 35.40178,0 z M 183.8806,-69.51283 c -4.90866,-4.908653 -12.79224,-4.908653 -17.7009,0 -4.90864,4.908645 -4.90864,12.792238 0,17.700887 9.51982,9.519806 14.72596,22.014551 14.72596,35.401778 0,13.3872256 -5.20614,26.0307176 -14.72596,35.401776 -4.90864,4.90865 -4.90864,12.792239 0,17.700888 2.37995,2.379952 5.65239,3.718675 8.92483,3.718675 3.27243,0 6.39611,-1.189976 8.92481,-3.718675 14.27971,-14.279707 22.01456,-33.1705723 22.01456,-53.251412 -0.14876,-19.783346 -8.03234,-38.674209 -22.1633,-52.953917 z m 35.40177,-35.40177 c -4.90865,-4.90866 -12.79224,-4.90866 -17.70089,0 -4.90865,4.90864 -4.90865,12.792233 0,17.700878 39.12045,39.120454 39.12045,102.784153 0,141.904604 -4.90865,4.90865 -4.90865,12.792239 0,17.700889 2.37995,2.379948 5.65239,3.718671 8.92482,3.718671 3.27244,0 6.39612,-1.189971 8.92482,-3.718671 48.789,-48.789004 48.789,-128.368628 -0.14875,-177.306371 z"
         id="path5465"
         sodipodi:nodetypes="scccscssscsssccssssssss"
         style="fill:#745027;fill-opacity:1;stroke-width:1.48747" />
      <g
         id="g5469"
         transform="translate(46.07357,-134.0322)" />
      <g
         id="g5471"
         transform="translate(46.07357,-134.0322)" />
      <g
         id="g5473"
         transform="translate(46.07357,-134.0322)" />
      <g
         id="g5475"
         transform="translate(46.07357,-134.0322)" />
      <g
         id="g5477"
         transform="translate(46.07357,-134.0322)" />
      <g
         id="g5479"
         transform="translate(46.07357,-134.0322)" />
      <g
         id="g5481"
         transform="translate(46.07357,-134.0322)" />
      <g
         id="g5483"
         transform="translate(46.07357,-134.0322)" />
      <g
         id="g5485"
         transform="translate(46.07357,-134.0322)" />
      <g
         id="g5487"
         transform="translate(46.07357,-134.0322)" />
      <g
         id="g5489"
         transform="translate(46.07357,-134.0322)" />
      <g
         id="g5491"
         transform="translate(46.07357,-134.0322)" />
      <g
         id="g5493"
         transform="translate(46.07357,-134.0322)" />
      <g
         id="g5495"
         transform="translate(46.07357,-134.0322)" />
      <g
         id="g5497"
         transform="translate(46.07357,-134.0322)" />
    </g>
    <g
       id="badge">
      <rect
         style="fill:#ffffff;stroke:#000000;stroke-width:0.776023;stroke-dasharray:none"
         id="rect15806"
         width="23.925705"
         height="36.899502"
         x="-3.5330639"
         y="113.5984"
         ry="0.1276584"
         transform="rotate(-52.018246)" />
      <text
         xml:space="preserve"
         style="font-style:normal;font-variant:normal;font-weight:normal;font-stretch:normal;font-size:4.4224px;font-family:Impact;-inkscape-font-specification:Impact;fill:#000000;stroke:none;stroke-width:0.810683;stroke-dasharray:none"
         x="115.1376"
         y="-15.642707"
         id="text11227"
         transform="rotate(37.981754)"><tspan
           sodipodi:role="line"
           id="tspan11225"
           x="115.1376"
           y="-15.642707"
           style="stroke-width:0.810683">BADGE</tspan></text>
    </g>
  </g>
</svg>
